<?xml version="1.0" encoding="us-ascii" standalone="no"?><svg xmlns="http://www.w3.org/2000/svg" xmlns:xlink="http://www.w3.org/1999/xlink" contentStyleType="text/css" height="548px" preserveAspectRatio="none" style="width:836px;height:548px;background:#FFFFFF;" version="1.1" viewBox="0 0 836 548" width="836px" zoomAndPan="magnify"><defs/><g><!--cluster sam_ml--><g id="cluster_sam_ml"><path d="M8.5,6 L70.5,6 A3.75,3.75 0 0 1 73,8.5 L80,28.2969 L826.5,28.2969 A2.5,2.5 0 0 1 829,30.7969 L829,538.5 A2.5,2.5 0 0 1 826.5,541 L8.5,541 A2.5,2.5 0 0 1 6,538.5 L6,8.5 A2.5,2.5 0 0 1 8.5,6 " fill="none" style="stroke:#000000;stroke-width:1.5;"/><line style="stroke:#000000;stroke-width:1.5;" x1="6" x2="80" y1="28.2969" y2="28.2969"/><text fill="#000000" font-family="sans-serif" font-size="14" font-weight="bold" lengthAdjust="spacing" textLength="61" x="10" y="20.9951">sam_ml</text></g><!--cluster data--><g id="cluster_data"><path d="M596.5,49 L635.5,49 A3.75,3.75 0 0 1 638,51.5 L645,71.2969 L802.5,71.2969 A2.5,2.5 0 0 1 805,73.7969 L805,311.5 A2.5,2.5 0 0 1 802.5,314 L596.5,314 A2.5,2.5 0 0 1 594,311.5 L594,51.5 A2.5,2.5 0 0 1 596.5,49 " fill="none" style="stroke:#000000;stroke-width:1.5;"/><line style="stroke:#000000;stroke-width:1.5;" x1="594" x2="645" y1="71.2969" y2="71.2969"/><text fill="#000000" font-family="sans-serif" font-size="14" font-weight="bold" lengthAdjust="spacing" textLength="38" x="598" y="63.9951">data</text></g><!--cluster preprocessing--><g id="cluster_preprocessing"><path d="M620.5,203 L735.5,203 A3.75,3.75 0 0 1 738,205.5 L745,225.2969 L745.5,225.2969 A2.5,2.5 0 0 1 748,227.7969 L748,287.5 A2.5,2.5 0 0 1 745.5,290 L620.5,290 A2.5,2.5 0 0 1 618,287.5 L618,205.5 A2.5,2.5 0 0 1 620.5,203 " fill="none" style="stroke:#000000;stroke-width:1.5;"/><line style="stroke:#000000;stroke-width:1.5;" x1="618" x2="745" y1="225.2969" y2="225.2969"/><text fill="#000000" font-family="sans-serif" font-size="14" font-weight="bold" lengthAdjust="spacing" textLength="114" x="622" y="217.9951">preprocessing</text></g><!--cluster regio--><g id="cluster_regio"><path d="M697.5,92 L739.5,92 A3.75,3.75 0 0 1 742,94.5 L749,114.2969 L778.5,114.2969 A2.5,2.5 0 0 1 781,116.7969 L781,176.5 A2.5,2.5 0 0 1 778.5,179 L697.5,179 A2.5,2.5 0 0 1 695,176.5 L695,94.5 A2.5,2.5 0 0 1 697.5,92 " fill="none" style="stroke:#000000;stroke-width:1.5;"/><line style="stroke:#000000;stroke-width:1.5;" x1="695" x2="749" y1="114.2969" y2="114.2969"/><text fill="#000000" font-family="sans-serif" font-size="14" font-weight="bold" lengthAdjust="spacing" textLength="41" x="699" y="106.9951">regio</text></g><!--cluster models--><g id="cluster_models"><path d="M32.5,94 L91.5,94 A3.75,3.75 0 0 1 94,96.5 L101,116.2969 L567.5,116.2969 A2.5,2.5 0 0 1 570,118.7969 L570,514.5 A2.5,2.5 0 0 1 567.5,517 L32.5,517 A2.5,2.5 0 0 1 30,514.5 L30,96.5 A2.5,2.5 0 0 1 32.5,94 " fill="none" style="stroke:#000000;stroke-width:1.5;"/><line style="stroke:#000000;stroke-width:1.5;" x1="30" x2="101" y1="116.2969" y2="116.2969"/><text fill="#000000" font-family="sans-serif" font-size="14" font-weight="bold" lengthAdjust="spacing" textLength="58" x="34" y="108.9951">models</text></g><!--cluster classifier--><g id="cluster_classifier"><path d="M457.5,338 L533.5,338 A3.75,3.75 0 0 1 536,340.5 L543,360.2969 L543.5,360.2969 A2.5,2.5 0 0 1 546,362.7969 L546,422.5 A2.5,2.5 0 0 1 543.5,425 L457.5,425 A2.5,2.5 0 0 1 455,422.5 L455,340.5 A2.5,2.5 0 0 1 457.5,338 " fill="none" style="stroke:#000000;stroke-width:1.5;"/><line style="stroke:#000000;stroke-width:1.5;" x1="455" x2="543" y1="360.2969" y2="360.2969"/><text fill="#000000" font-family="sans-serif" font-size="14" font-weight="bold" lengthAdjust="spacing" textLength="75" x="459" y="352.9951">classifier</text></g><!--cluster regressor--><g id="cluster_regressor"><path d="M167.5,338 L245.5,338 A3.75,3.75 0 0 1 248,340.5 L255,360.2969 L255.5,360.2969 A2.5,2.5 0 0 1 258,362.7969 L258,422.5 A2.5,2.5 0 0 1 255.5,425 L167.5,425 A2.5,2.5 0 0 1 165,422.5 L165,340.5 A2.5,2.5 0 0 1 167.5,338 " fill="none" style="stroke:#000000;stroke-width:1.5;"/><line style="stroke:#000000;stroke-width:1.5;" x1="165" x2="255" y1="360.2969" y2="360.2969"/><text fill="#000000" font-family="sans-serif" font-size="14" font-weight="bold" lengthAdjust="spacing" textLength="77" x="169" y="352.9951">regressor</text></g><!--cluster automl--><g id="cluster_automl"><path d="M56.5,203 L115.5,203 A3.75,3.75 0 0 1 118,205.5 L125,225.2969 L137.5,225.2969 A2.5,2.5 0 0 1 140,227.7969 L140,287.5 A2.5,2.5 0 0 1 137.5,290 L56.5,290 A2.5,2.5 0 0 1 54,287.5 L54,205.5 A2.5,2.5 0 0 1 56.5,203 " fill="none" style="stroke:#000000;stroke-width:1.5;"/><line style="stroke:#000000;stroke-width:1.5;" x1="54" x2="125" y1="225.2969" y2="225.2969"/><text fill="#000000" font-family="sans-serif" font-size="14" font-weight="bold" lengthAdjust="spacing" textLength="58" x="58" y="217.9951">automl</text></g><!--class Data--><g id="elem_Data"><rect codeLine="7" fill="#F1F1F1" height="32" id="Data" rx="2.5" ry="2.5" style="stroke:#181818;stroke-width:0.5;" width="66" x="610" y="129"/><ellipse cx="625" cy="145" fill="#A9DCDF" rx="11" ry="11" style="stroke:#181818;stroke-width:1.0;"/><path d="M627.0781,146.8125 L627.4688,147.7969 L627.0781,147.7969 C626.625,147.7969 626.5156,147.8125 626.3594,147.9219 C626.1094,148.0781 625.9531,148.3594 625.9531,148.6563 C625.9531,148.9219 626.0938,149.1719 626.3125,149.3281 C626.4531,149.4531 626.6563,149.5 627.0781,149.5 L629.4375,149.5 C629.7969,149.5 630.0156,149.4688 630.1563,149.375 C630.4063,149.2344 630.5625,148.9375 630.5625,148.6563 C630.5625,148.375 630.4219,148.125 630.2031,147.9688 C630.0313,147.8281 629.875,147.7969 629.4063,147.7969 L626.0156,139.5938 L622.3438,139.5938 C621.8906,139.5938 621.7656,139.6094 621.6094,139.7031 C621.3594,139.875 621.2031,140.1563 621.2031,140.4375 C621.2031,140.7188 621.3438,140.9688 621.5625,141.1406 C621.7344,141.25 621.9063,141.2813 622.3438,141.2813 L623.4219,141.2813 L620.7813,147.7969 C620.3594,147.7969 620.2031,147.8125 620.0469,147.9219 C619.7969,148.0781 619.6406,148.3594 619.6406,148.6563 C619.6406,149.2188 620.0156,149.5 620.7656,149.5 L623.0313,149.5 C623.3906,149.5 623.6094,149.4688 623.7344,149.375 C624,149.2344 624.1406,148.9375 624.1406,148.6563 C624.1406,148.375 624.0156,148.125 623.7969,147.9531 C623.625,147.8281 623.4844,147.7969 623.0313,147.7969 L622.6406,147.7969 L623.0313,146.8125 L627.0781,146.8125 Z M626.375,145.1094 L623.7031,145.1094 L625.0469,141.8438 L626.375,145.1094 Z " fill="#000000"/><text fill="#000000" font-family="sans-serif" font-size="14" font-style="italic" lengthAdjust="spacing" textLength="34" x="639" y="149.8467">Data</text></g><!--entity  --><g id="elem_ "><ellipse cx="661" cy="256" fill="#F1F1F1" rx="8" ry="8" style="stroke:#181818;stroke-width:0.5;"/></g><!--entity      --><g id="elem_     "><ellipse cx="738" cy="145" fill="#F1F1F1" rx="8" ry="8" style="stroke:#181818;stroke-width:0.5;"/></g><!--class Model--><g id="elem_Model"><rect codeLine="17" fill="#F1F1F1" height="32" id="Model" rx="2.5" ry="2.5" style="stroke:#181818;stroke-width:0.5;" width="75" x="322.5" y="129"/><ellipse cx="337.5" cy="145" fill="#A9DCDF" rx="11" ry="11" style="stroke:#181818;stroke-width:1.0;"/><path d="M339.5781,146.8125 L339.9688,147.7969 L339.5781,147.7969 C339.125,147.7969 339.0156,147.8125 338.8594,147.9219 C338.6094,148.0781 338.4531,148.3594 338.4531,148.6563 C338.4531,148.9219 338.5938,149.1719 338.8125,149.3281 C338.9531,149.4531 339.1563,149.5 339.5781,149.5 L341.9375,149.5 C342.2969,149.5 342.5156,149.4688 342.6563,149.375 C342.9063,149.2344 343.0625,148.9375 343.0625,148.6563 C343.0625,148.375 342.9219,148.125 342.7031,147.9688 C342.5313,147.8281 342.375,147.7969 341.9063,147.7969 L338.5156,139.5938 L334.8438,139.5938 C334.3906,139.5938 334.2656,139.6094 334.1094,139.7031 C333.8594,139.875 333.7031,140.1563 333.7031,140.4375 C333.7031,140.7188 333.8438,140.9688 334.0625,141.1406 C334.2344,141.25 334.4063,141.2813 334.8438,141.2813 L335.9219,141.2813 L333.2813,147.7969 C332.8594,147.7969 332.7031,147.8125 332.5469,147.9219 C332.2969,148.0781 332.1406,148.3594 332.1406,148.6563 C332.1406,149.2188 332.5156,149.5 333.2656,149.5 L335.5313,149.5 C335.8906,149.5 336.1094,149.4688 336.2344,149.375 C336.5,149.2344 336.6406,148.9375 336.6406,148.6563 C336.6406,148.375 336.5156,148.125 336.2969,147.9531 C336.125,147.8281 335.9844,147.7969 335.5313,147.7969 L335.1406,147.7969 L335.5313,146.8125 L339.5781,146.8125 Z M338.875,145.1094 L336.2031,145.1094 L337.5469,141.8438 L338.875,145.1094 Z " fill="#000000"/><text fill="#000000" font-family="sans-serif" font-size="14" font-style="italic" lengthAdjust="spacing" textLength="43" x="351.5" y="149.8467">Model</text></g><!--class Classifier--><g id="elem_Classifier"><rect codeLine="18" fill="#F1F1F1" height="32" id="Classifier" rx="2.5" ry="2.5" style="stroke:#181818;stroke-width:0.5;" width="97" x="456.5" y="240"/><ellipse cx="471.5" cy="256" fill="#A9DCDF" rx="11" ry="11" style="stroke:#181818;stroke-width:1.0;"/><path d="M473.5781,257.8125 L473.9688,258.7969 L473.5781,258.7969 C473.125,258.7969 473.0156,258.8125 472.8594,258.9219 C472.6094,259.0781 472.4531,259.3594 472.4531,259.6563 C472.4531,259.9219 472.5938,260.1719 472.8125,260.3281 C472.9531,260.4531 473.1563,260.5 473.5781,260.5 L475.9375,260.5 C476.2969,260.5 476.5156,260.4688 476.6563,260.375 C476.9063,260.2344 477.0625,259.9375 477.0625,259.6563 C477.0625,259.375 476.9219,259.125 476.7031,258.9688 C476.5313,258.8281 476.375,258.7969 475.9063,258.7969 L472.5156,250.5938 L468.8438,250.5938 C468.3906,250.5938 468.2656,250.6094 468.1094,250.7031 C467.8594,250.875 467.7031,251.1563 467.7031,251.4375 C467.7031,251.7188 467.8438,251.9688 468.0625,252.1406 C468.2344,252.25 468.4063,252.2813 468.8438,252.2813 L469.9219,252.2813 L467.2813,258.7969 C466.8594,258.7969 466.7031,258.8125 466.5469,258.9219 C466.2969,259.0781 466.1406,259.3594 466.1406,259.6563 C466.1406,260.2188 466.5156,260.5 467.2656,260.5 L469.5313,260.5 C469.8906,260.5 470.1094,260.4688 470.2344,260.375 C470.5,260.2344 470.6406,259.9375 470.6406,259.6563 C470.6406,259.375 470.5156,259.125 470.2969,258.9531 C470.125,258.8281 469.9844,258.7969 469.5313,258.7969 L469.1406,258.7969 L469.5313,257.8125 L473.5781,257.8125 Z M472.875,256.1094 L470.2031,256.1094 L471.5469,252.8438 L472.875,256.1094 Z " fill="#000000"/><text fill="#000000" font-family="sans-serif" font-size="14" font-style="italic" lengthAdjust="spacing" textLength="65" x="485.5" y="260.8467">Classifier</text></g><!--class Regressor--><g id="elem_Regressor"><rect codeLine="19" fill="#F1F1F1" height="32" id="Regressor" rx="2.5" ry="2.5" style="stroke:#181818;stroke-width:0.5;" width="104" x="159" y="240"/><ellipse cx="174" cy="256" fill="#A9DCDF" rx="11" ry="11" style="stroke:#181818;stroke-width:1.0;"/><path d="M176.0781,257.8125 L176.4688,258.7969 L176.0781,258.7969 C175.625,258.7969 175.5156,258.8125 175.3594,258.9219 C175.1094,259.0781 174.9531,259.3594 174.9531,259.6563 C174.9531,259.9219 175.0938,260.1719 175.3125,260.3281 C175.4531,260.4531 175.6563,260.5 176.0781,260.5 L178.4375,260.5 C178.7969,260.5 179.0156,260.4688 179.1563,260.375 C179.4063,260.2344 179.5625,259.9375 179.5625,259.6563 C179.5625,259.375 179.4219,259.125 179.2031,258.9688 C179.0313,258.8281 178.875,258.7969 178.4063,258.7969 L175.0156,250.5938 L171.3438,250.5938 C170.8906,250.5938 170.7656,250.6094 170.6094,250.7031 C170.3594,250.875 170.2031,251.1563 170.2031,251.4375 C170.2031,251.7188 170.3438,251.9688 170.5625,252.1406 C170.7344,252.25 170.9063,252.2813 171.3438,252.2813 L172.4219,252.2813 L169.7813,258.7969 C169.3594,258.7969 169.2031,258.8125 169.0469,258.9219 C168.7969,259.0781 168.6406,259.3594 168.6406,259.6563 C168.6406,260.2188 169.0156,260.5 169.7656,260.5 L172.0313,260.5 C172.3906,260.5 172.6094,260.4688 172.7344,260.375 C173,260.2344 173.1406,259.9375 173.1406,259.6563 C173.1406,259.375 173.0156,259.125 172.7969,258.9531 C172.625,258.8281 172.4844,258.7969 172.0313,258.7969 L171.6406,258.7969 L172.0313,257.8125 L176.0781,257.8125 Z M175.375,256.1094 L172.7031,256.1094 L174.0469,252.8438 L175.375,256.1094 Z " fill="#000000"/><text fill="#000000" font-family="sans-serif" font-size="14" font-style="italic" lengthAdjust="spacing" textLength="72" x="188" y="260.8467">Regressor</text></g><!--class BasePipeline--><g id="elem_BasePipeline"><rect codeLine="20" fill="#F1F1F1" height="32" id="BasePipeline" rx="2.5" ry="2.5" style="stroke:#181818;stroke-width:0.5;" width="123" x="298.5" y="240"/><ellipse cx="313.5" cy="256" fill="#A9DCDF" rx="11" ry="11" style="stroke:#181818;stroke-width:1.0;"/><path d="M315.5781,257.8125 L315.9688,258.7969 L315.5781,258.7969 C315.125,258.7969 315.0156,258.8125 314.8594,258.9219 C314.6094,259.0781 314.4531,259.3594 314.4531,259.6563 C314.4531,259.9219 314.5938,260.1719 314.8125,260.3281 C314.9531,260.4531 315.1563,260.5 315.5781,260.5 L317.9375,260.5 C318.2969,260.5 318.5156,260.4688 318.6563,260.375 C318.9063,260.2344 319.0625,259.9375 319.0625,259.6563 C319.0625,259.375 318.9219,259.125 318.7031,258.9688 C318.5313,258.8281 318.375,258.7969 317.9063,258.7969 L314.5156,250.5938 L310.8438,250.5938 C310.3906,250.5938 310.2656,250.6094 310.1094,250.7031 C309.8594,250.875 309.7031,251.1563 309.7031,251.4375 C309.7031,251.7188 309.8438,251.9688 310.0625,252.1406 C310.2344,252.25 310.4063,252.2813 310.8438,252.2813 L311.9219,252.2813 L309.2813,258.7969 C308.8594,258.7969 308.7031,258.8125 308.5469,258.9219 C308.2969,259.0781 308.1406,259.3594 308.1406,259.6563 C308.1406,260.2188 308.5156,260.5 309.2656,260.5 L311.5313,260.5 C311.8906,260.5 312.1094,260.4688 312.2344,260.375 C312.5,260.2344 312.6406,259.9375 312.6406,259.6563 C312.6406,259.375 312.5156,259.125 312.2969,258.9531 C312.125,258.8281 311.9844,258.7969 311.5313,258.7969 L311.1406,258.7969 L311.5313,257.8125 L315.5781,257.8125 Z M314.875,256.1094 L312.2031,256.1094 L313.5469,252.8438 L314.875,256.1094 Z " fill="#000000"/><text fill="#000000" font-family="sans-serif" font-size="14" font-style="italic" lengthAdjust="spacing" textLength="91" x="327.5" y="260.8467">BasePipeline</text></g><!--class create_pipeline--><g id="elem_create_pipeline"><rect codeLine="21" fill="#F1F1F1" height="32" id="create_pipeline" rx="2.5" ry="2.5" style="stroke:#181818;stroke-width:0.5;" width="145" x="287.5" y="469"/><ellipse cx="302.5" cy="485" fill="#F1F1F1" rx="11" ry="11" style="stroke:#181818;stroke-width:1.0;"/><path d="M302.0469,486.5938 L303.7188,486.5938 C305.2969,486.5938 306.1406,486.3125 306.8906,485.4844 C307.4375,484.8906 307.75,484.0781 307.75,483.2969 C307.75,481.4219 306.2188,480.0938 304.0469,480.0938 L300.0938,480.0938 C299.6563,480.0938 299.5313,480.1094 299.375,480.2031 C299.125,480.3594 298.9688,480.6563 298.9688,480.9375 C298.9688,481.1875 299.1094,481.4688 299.3281,481.6406 C299.4844,481.75 299.6719,481.7813 300.0938,481.7813 L300.3438,481.7813 L300.3438,488.2969 L300.0938,488.2969 C299.6875,488.2969 299.5313,488.3125 299.375,488.4219 C299.125,488.5781 298.9688,488.8594 298.9688,489.1563 C298.9688,489.4063 299.1094,489.6719 299.3281,489.8281 C299.4688,489.9531 299.7031,490 300.0938,490 L303.7344,490 C304.0781,490 304.3281,489.9531 304.4375,489.875 C304.7031,489.7344 304.8594,489.4375 304.8594,489.1563 C304.8594,488.875 304.7188,488.625 304.5,488.4531 C304.3281,488.3281 304.1875,488.2969 303.7344,488.2969 L302.0469,488.2969 L302.0469,486.5938 Z M302.0469,481.7813 L304.0469,481.7813 C305.2344,481.7813 305.9375,482.3906 305.9375,483.3594 C305.9375,484.3125 305.2344,484.9063 304.0469,484.9063 L302.0469,484.9063 L302.0469,481.7813 Z " fill="#000000"/><text fill="#000000" font-family="sans-serif" font-size="14" lengthAdjust="spacing" textLength="113" x="316.5" y="489.8467">create_pipeline</text></g><!--class DynamicPipeline--><g id="elem_DynamicPipeline"><rect codeLine="22" fill="#F1F1F1" height="32" id="DynamicPipeline" rx="2.5" ry="2.5" style="stroke:#181818;stroke-width:0.5;" width="152" x="284" y="375"/><ellipse cx="299" cy="391" fill="#ADD1B2" rx="11" ry="11" style="stroke:#181818;stroke-width:1.0;"/><path d="M301.3438,386.6719 C300.4063,386.2344 299.8125,386.0938 298.9375,386.0938 C296.3125,386.0938 294.3125,388.1719 294.3125,390.8906 L294.3125,392.0156 C294.3125,394.5938 296.4219,396.4844 299.3125,396.4844 C300.5313,396.4844 301.6875,396.1875 302.4375,395.6406 C303.0156,395.2344 303.3438,394.7813 303.3438,394.3906 C303.3438,393.9375 302.9531,393.5469 302.4844,393.5469 C302.2656,393.5469 302.0625,393.625 301.875,393.8125 C301.4219,394.2969 301.4219,394.2969 301.2344,394.3906 C300.8125,394.6563 300.125,394.7813 299.3594,394.7813 C297.3125,394.7813 296.0156,393.6875 296.0156,391.9844 L296.0156,390.8906 C296.0156,389.1094 297.2656,387.7969 299,387.7969 C299.5781,387.7969 300.1875,387.9531 300.6563,388.2031 C301.1406,388.4844 301.3125,388.7031 301.4063,389.1094 C301.4688,389.5156 301.5,389.6406 301.6406,389.7656 C301.7813,389.9063 302.0156,390.0156 302.2344,390.0156 C302.5,390.0156 302.7656,389.875 302.9375,389.6563 C303.0469,389.5 303.0781,389.3125 303.0781,388.8906 L303.0781,387.4688 C303.0781,387.0313 303.0625,386.9063 302.9688,386.75 C302.8125,386.4844 302.5313,386.3438 302.2344,386.3438 C301.9375,386.3438 301.7344,386.4375 301.5156,386.75 L301.3438,386.6719 Z " fill="#000000"/><text fill="#000000" font-family="sans-serif" font-size="14" lengthAdjust="spacing" textLength="120" x="313" y="395.8467">DynamicPipeline</text></g><!--class AutoML--><g id="elem_AutoML"><rect codeLine="30" fill="#F1F1F1" height="32" id="AutoML" rx="2.5" ry="2.5" style="stroke:#181818;stroke-width:0.5;" width="85" x="54.5" y="129"/><ellipse cx="69.5" cy="145" fill="#A9DCDF" rx="11" ry="11" style="stroke:#181818;stroke-width:1.0;"/><path d="M71.5781,146.8125 L71.9688,147.7969 L71.5781,147.7969 C71.125,147.7969 71.0156,147.8125 70.8594,147.9219 C70.6094,148.0781 70.4531,148.3594 70.4531,148.6563 C70.4531,148.9219 70.5938,149.1719 70.8125,149.3281 C70.9531,149.4531 71.1563,149.5 71.5781,149.5 L73.9375,149.5 C74.2969,149.5 74.5156,149.4688 74.6563,149.375 C74.9063,149.2344 75.0625,148.9375 75.0625,148.6563 C75.0625,148.375 74.9219,148.125 74.7031,147.9688 C74.5313,147.8281 74.375,147.7969 73.9063,147.7969 L70.5156,139.5938 L66.8438,139.5938 C66.3906,139.5938 66.2656,139.6094 66.1094,139.7031 C65.8594,139.875 65.7031,140.1563 65.7031,140.4375 C65.7031,140.7188 65.8438,140.9688 66.0625,141.1406 C66.2344,141.25 66.4063,141.2813 66.8438,141.2813 L67.9219,141.2813 L65.2813,147.7969 C64.8594,147.7969 64.7031,147.8125 64.5469,147.9219 C64.2969,148.0781 64.1406,148.3594 64.1406,148.6563 C64.1406,149.2188 64.5156,149.5 65.2656,149.5 L67.5313,149.5 C67.8906,149.5 68.1094,149.4688 68.2344,149.375 C68.5,149.2344 68.6406,148.9375 68.6406,148.6563 C68.6406,148.375 68.5156,148.125 68.2969,147.9531 C68.125,147.8281 67.9844,147.7969 67.5313,147.7969 L67.1406,147.7969 L67.5313,146.8125 L71.5781,146.8125 Z M70.875,145.1094 L68.2031,145.1094 L69.5469,141.8438 L70.875,145.1094 Z " fill="#000000"/><text fill="#000000" font-family="sans-serif" font-size="14" font-style="italic" lengthAdjust="spacing" textLength="53" x="83.5" y="149.8467">AutoML</text></g><!--entity   --><g id="elem_  "><ellipse cx="503" cy="391" fill="#F1F1F1" rx="8" ry="8" style="stroke:#181818;stroke-width:0.5;"/></g><!--entity    --><g id="elem_   "><ellipse cx="211" cy="391" fill="#F1F1F1" rx="8" ry="8" style="stroke:#181818;stroke-width:0.5;"/></g><!--entity     --><g id="elem_    "><ellipse cx="97" cy="256" fill="#F1F1F1" rx="8" ry="8" style="stroke:#181818;stroke-width:0.5;"/></g><!--reverse link AutoML to     --><g id="link_AutoML_    "><path codeLine="37" d="M97,179.156 C97,202.555 97,228.671 97,246.852 " fill="none" id="AutoML-backto-    " style="stroke:#181818;stroke-width:1.0;"/><polygon fill="none" points="97,161.156,91,179.156,103,179.156,97,161.156" style="stroke:#181818;stroke-width:1.0;"/></g><!--reverse link Data to  --><g id="link_Data_ "><path codeLine="38" d="M648.4357,178.9155 C652.2997,202.3145 656.652,228.671 659.654,246.852 " fill="none" id="Data-backto- " style="stroke:#181818;stroke-width:1.0;"/><polygon fill="none" points="645.503,161.156,642.5159,179.8931,654.3555,177.9379,645.503,161.156" style="stroke:#181818;stroke-width:1.0;"/></g><!--reverse link Model to Classifier--><g id="link_Model_Classifier"><path codeLine="39" d="M402.6712,170.2535 C418.2992,179.3925 422.511,182.556 439,195 C457.541,208.993 477.013,227.187 489.96,239.855 " fill="none" id="Model-backto-Classifier" style="stroke:#181818;stroke-width:1.0;"/><polygon fill="none" points="387.133,161.167,399.6424,175.4329,405.7,165.0741,387.133,161.167" style="stroke:#181818;stroke-width:1.0;"/></g><!--reverse link Model to Regressor--><g id="link_Model_Regressor"><path codeLine="40" d="M317.8617,170.2772 C302.2237,179.5002 297.8,182.702 281,195 C261.627,209.182 240.924,227.344 227.101,239.953 " fill="none" id="Model-backto-Regressor" style="stroke:#181818;stroke-width:1.0;"/><polygon fill="none" points="333.366,161.133,314.8136,165.1091,320.9097,175.4453,333.366,161.133" style="stroke:#181818;stroke-width:1.0;"/></g><!--reverse link Model to BasePipeline--><g id="link_Model_BasePipeline"><path codeLine="41" d="M360,179.156 C360,199.981 360,219.216 360,239.973 " fill="none" id="Model-backto-BasePipeline" style="stroke:#181818;stroke-width:1.0;"/><polygon fill="none" points="360,161.156,354,179.156,366,179.156,360,161.156" style="stroke:#181818;stroke-width:1.0;"/></g><!--reverse link Classifier to   --><g id="link_Classifier_  "><path codeLine="42" d="M504.5002,290.255 C504.0752,318.503 503.45,360.054 503.123,381.815 " fill="none" id="Classifier-backto-  " style="stroke:#181818;stroke-width:1.0;"/><polygon fill="none" points="504.771,272.257,498.5009,290.1647,510.4995,290.3452,504.771,272.257" style="stroke:#181818;stroke-width:1.0;"/></g><!--reverse link Classifier to DynamicPipeline--><g id="link_Classifier_DynamicPipeline"><path codeLine="43" d="M477.6888,284.8141 C464.4938,298.1791 457.1,305.332 439,322 C418.633,340.756 394.393,361.382 378.184,374.943 " fill="none" id="Classifier-backto-DynamicPipeline" style="stroke:#181818;stroke-width:1.0;"/><polygon fill="none" points="490.335,272.005,473.4191,280.5987,481.9585,289.0295,490.335,272.005" style="stroke:#181818;stroke-width:1.0;"/></g><!--reverse link Regressor to DynamicPipeline--><g id="link_Regressor_DynamicPipeline"><path codeLine="44" d="M240.0622,284.4977 C254.1492,297.7827 262.208,305.198 281,322 C301.64,340.455 325.827,361.139 341.949,374.797 " fill="none" id="Regressor-backto-DynamicPipeline" style="stroke:#181818;stroke-width:1.0;"/><polygon fill="none" points="226.967,272.148,235.9457,288.8628,244.1788,280.1326,226.967,272.148" style="stroke:#181818;stroke-width:1.0;"/></g><!--reverse link Regressor to    --><g id="link_Regressor_   "><path codeLine="45" d="M211,290.257 C211,318.505 211,360.054 211,381.815 " fill="none" id="Regressor-backto-   " style="stroke:#181818;stroke-width:1.0;"/><polygon fill="none" points="211,272.257,205,290.257,217,290.257,211,272.257" style="stroke:#181818;stroke-width:1.0;"/></g><!--reverse link DynamicPipeline to create_pipeline--><g id="link_DynamicPipeline_create_pipeline"><path codeLine="46" d="M360,413.192 C360,430.238 360,451.73 360,468.7855 " fill="none" id="DynamicPipeline-backto-create_pipeline" style="stroke:#181818;stroke-width:1.0;"/><polygon fill="#181818" points="360,407.192,356,416.192,360,412.192,364,416.192,360,407.192" style="stroke:#181818;stroke-width:1.0;"/></g><!--reverse link BasePipeline to DynamicPipeline--><g id="link_BasePipeline_DynamicPipeline"><path codeLine="47" d="M360,290.257 C360,315.912 360,349.386 360,374.921 " fill="none" id="BasePipeline-backto-DynamicPipeline" style="stroke:#181818;stroke-width:1.0;"/><polygon fill="none" points="360,272.257,354,290.257,366,290.257,360,272.257" style="stroke:#181818;stroke-width:1.0;"/></g><!--SRC=[dLD1JiCm4Bpt5QlS6_60NWfSaAY4u07Lnbc2LJksrkwXGFzEJD8aD0uEx267p7XdFJjs1rbRPDGW53gtzPvbSVJq84pz8jy9RbRGrPii2KXRVm9DkY1sgnwpA0vO4MGEzLwh33u6B8Bd9NeC9BWgB9nd5BwT1kuRseGJwvLR9ij6a7EohcATGmd9GZK78Pl0vsKoJ9KqoVQXKXBdtmtIfYJb5bYq2yGKwIvyvQiaJZ6VgUB6H9CatgAZ9sb9oPgcth7nHXW5WWazxUqSiLlpgKOjnNoxg3cvw6-LtiX_Djx9yCMI1NkFoQISt1wzsJqkdGORTll0KX5C9p0oOpiCR3xNw-ikuJ5UWE7lT_xQtv6KZT1fiaPWD4r3ltwUR1QSor0l-oVQprrU7O9DmvXBzlWcKSal]--></g></svg>