<?xml version="1.0" encoding="us-ascii" standalone="no"?><svg xmlns="http://www.w3.org/2000/svg" xmlns:xlink="http://www.w3.org/1999/xlink" contentStyleType="text/css" height="548px" preserveAspectRatio="none" style="width:913px;height:548px;background:#FFFFFF;" version="1.1" viewBox="0 0 913 548" width="913px" zoomAndPan="magnify"><defs/><g><!--cluster sam_ml--><g id="cluster_sam_ml"><path d="M8.5,6 L70.5,6 A3.75,3.75 0 0 1 73,8.5 L80,28.2969 L903.5,28.2969 A2.5,2.5 0 0 1 906,30.7969 L906,538.5 A2.5,2.5 0 0 1 903.5,541 L8.5,541 A2.5,2.5 0 0 1 6,538.5 L6,8.5 A2.5,2.5 0 0 1 8.5,6 " fill="none" style="stroke:#000000;stroke-width:1.5;"/><line style="stroke:#000000;stroke-width:1.5;" x1="6" x2="80" y1="28.2969" y2="28.2969"/><text fill="#000000" font-family="sans-serif" font-size="14" font-weight="bold" lengthAdjust="spacing" textLength="61" x="10" y="20.9951">sam_ml</text></g><!--cluster data--><g id="cluster_data"><path d="M673.5,49 L712.5,49 A3.75,3.75 0 0 1 715,51.5 L722,71.2969 L879.5,71.2969 A2.5,2.5 0 0 1 882,73.7969 L882,311.5 A2.5,2.5 0 0 1 879.5,314 L673.5,314 A2.5,2.5 0 0 1 671,311.5 L671,51.5 A2.5,2.5 0 0 1 673.5,49 " fill="none" style="stroke:#000000;stroke-width:1.5;"/><line style="stroke:#000000;stroke-width:1.5;" x1="671" x2="722" y1="71.2969" y2="71.2969"/><text fill="#000000" font-family="sans-serif" font-size="14" font-weight="bold" lengthAdjust="spacing" textLength="38" x="675" y="63.9951">data</text></g><!--cluster preprocessing--><g id="cluster_preprocessing"><path d="M697.5,203 L812.5,203 A3.75,3.75 0 0 1 815,205.5 L822,225.2969 L822.5,225.2969 A2.5,2.5 0 0 1 825,227.7969 L825,287.5 A2.5,2.5 0 0 1 822.5,290 L697.5,290 A2.5,2.5 0 0 1 695,287.5 L695,205.5 A2.5,2.5 0 0 1 697.5,203 " fill="none" style="stroke:#000000;stroke-width:1.5;"/><line style="stroke:#000000;stroke-width:1.5;" x1="695" x2="822" y1="225.2969" y2="225.2969"/><text fill="#000000" font-family="sans-serif" font-size="14" font-weight="bold" lengthAdjust="spacing" textLength="114" x="699" y="217.9951">preprocessing</text></g><!--cluster regio--><g id="cluster_regio"><path d="M774.5,92 L816.5,92 A3.75,3.75 0 0 1 819,94.5 L826,114.2969 L855.5,114.2969 A2.5,2.5 0 0 1 858,116.7969 L858,176.5 A2.5,2.5 0 0 1 855.5,179 L774.5,179 A2.5,2.5 0 0 1 772,176.5 L772,94.5 A2.5,2.5 0 0 1 774.5,92 " fill="none" style="stroke:#000000;stroke-width:1.5;"/><line style="stroke:#000000;stroke-width:1.5;" x1="772" x2="826" y1="114.2969" y2="114.2969"/><text fill="#000000" font-family="sans-serif" font-size="14" font-weight="bold" lengthAdjust="spacing" textLength="41" x="776" y="106.9951">regio</text></g><!--cluster models--><g id="cluster_models"><path d="M32.5,94 L91.5,94 A3.75,3.75 0 0 1 94,96.5 L101,116.2969 L644.5,116.2969 A2.5,2.5 0 0 1 647,118.7969 L647,514.5 A2.5,2.5 0 0 1 644.5,517 L32.5,517 A2.5,2.5 0 0 1 30,514.5 L30,96.5 A2.5,2.5 0 0 1 32.5,94 " fill="none" style="stroke:#000000;stroke-width:1.5;"/><line style="stroke:#000000;stroke-width:1.5;" x1="30" x2="101" y1="116.2969" y2="116.2969"/><text fill="#000000" font-family="sans-serif" font-size="14" font-weight="bold" lengthAdjust="spacing" textLength="58" x="34" y="108.9951">models</text></g><!--cluster classifier--><g id="cluster_classifier"><path d="M534.5,338 L610.5,338 A3.75,3.75 0 0 1 613,340.5 L620,360.2969 L620.5,360.2969 A2.5,2.5 0 0 1 623,362.7969 L623,422.5 A2.5,2.5 0 0 1 620.5,425 L534.5,425 A2.5,2.5 0 0 1 532,422.5 L532,340.5 A2.5,2.5 0 0 1 534.5,338 " fill="none" style="stroke:#000000;stroke-width:1.5;"/><line style="stroke:#000000;stroke-width:1.5;" x1="532" x2="620" y1="360.2969" y2="360.2969"/><text fill="#000000" font-family="sans-serif" font-size="14" font-weight="bold" lengthAdjust="spacing" textLength="75" x="536" y="352.9951">classifier</text></g><!--cluster regressor--><g id="cluster_regressor"><path d="M56.5,338 L134.5,338 A3.75,3.75 0 0 1 137,340.5 L144,360.2969 L144.5,360.2969 A2.5,2.5 0 0 1 147,362.7969 L147,422.5 A2.5,2.5 0 0 1 144.5,425 L56.5,425 A2.5,2.5 0 0 1 54,422.5 L54,340.5 A2.5,2.5 0 0 1 56.5,338 " fill="none" style="stroke:#000000;stroke-width:1.5;"/><line style="stroke:#000000;stroke-width:1.5;" x1="54" x2="144" y1="360.2969" y2="360.2969"/><text fill="#000000" font-family="sans-serif" font-size="14" font-weight="bold" lengthAdjust="spacing" textLength="77" x="58" y="352.9951">regressor</text></g><!--cluster automl--><g id="cluster_automl"><path d="M72.5,203 L131.5,203 A3.75,3.75 0 0 1 134,205.5 L141,225.2969 L153.5,225.2969 A2.5,2.5 0 0 1 156,227.7969 L156,287.5 A2.5,2.5 0 0 1 153.5,290 L72.5,290 A2.5,2.5 0 0 1 70,287.5 L70,205.5 A2.5,2.5 0 0 1 72.5,203 " fill="none" style="stroke:#000000;stroke-width:1.5;"/><line style="stroke:#000000;stroke-width:1.5;" x1="70" x2="141" y1="225.2969" y2="225.2969"/><text fill="#000000" font-family="sans-serif" font-size="14" font-weight="bold" lengthAdjust="spacing" textLength="58" x="74" y="217.9951">automl</text></g><!--class Data--><g id="elem_Data"><rect codeLine="7" fill="#F1F1F1" height="32" id="Data" rx="2.5" ry="2.5" style="stroke:#181818;stroke-width:0.5;" width="66" x="687" y="129"/><ellipse cx="702" cy="145" fill="#A9DCDF" rx="11" ry="11" style="stroke:#181818;stroke-width:1.0;"/><path d="M704.0781,146.8125 L704.4688,147.7969 L704.0781,147.7969 C703.625,147.7969 703.5156,147.8125 703.3594,147.9219 C703.1094,148.0781 702.9531,148.3594 702.9531,148.6563 C702.9531,148.9219 703.0938,149.1719 703.3125,149.3281 C703.4531,149.4531 703.6563,149.5 704.0781,149.5 L706.4375,149.5 C706.7969,149.5 707.0156,149.4688 707.1563,149.375 C707.4063,149.2344 707.5625,148.9375 707.5625,148.6563 C707.5625,148.375 707.4219,148.125 707.2031,147.9688 C707.0313,147.8281 706.875,147.7969 706.4063,147.7969 L703.0156,139.5938 L699.3438,139.5938 C698.8906,139.5938 698.7656,139.6094 698.6094,139.7031 C698.3594,139.875 698.2031,140.1563 698.2031,140.4375 C698.2031,140.7188 698.3438,140.9688 698.5625,141.1406 C698.7344,141.25 698.9063,141.2813 699.3438,141.2813 L700.4219,141.2813 L697.7813,147.7969 C697.3594,147.7969 697.2031,147.8125 697.0469,147.9219 C696.7969,148.0781 696.6406,148.3594 696.6406,148.6563 C696.6406,149.2188 697.0156,149.5 697.7656,149.5 L700.0313,149.5 C700.3906,149.5 700.6094,149.4688 700.7344,149.375 C701,149.2344 701.1406,148.9375 701.1406,148.6563 C701.1406,148.375 701.0156,148.125 700.7969,147.9531 C700.625,147.8281 700.4844,147.7969 700.0313,147.7969 L699.6406,147.7969 L700.0313,146.8125 L704.0781,146.8125 Z M703.375,145.1094 L700.7031,145.1094 L702.0469,141.8438 L703.375,145.1094 Z " fill="#000000"/><text fill="#000000" font-family="sans-serif" font-size="14" font-style="italic" lengthAdjust="spacing" textLength="34" x="716" y="149.8467">Data</text></g><!--entity  --><g id="elem_ "><ellipse cx="738" cy="256" fill="#F1F1F1" rx="8" ry="8" style="stroke:#181818;stroke-width:0.5;"/></g><!--entity      --><g id="elem_     "><ellipse cx="815" cy="145" fill="#F1F1F1" rx="8" ry="8" style="stroke:#181818;stroke-width:0.5;"/></g><!--class Model--><g id="elem_Model"><rect codeLine="17" fill="#F1F1F1" height="32" id="Model" rx="2.5" ry="2.5" style="stroke:#181818;stroke-width:0.5;" width="75" x="346.5" y="129"/><ellipse cx="361.5" cy="145" fill="#A9DCDF" rx="11" ry="11" style="stroke:#181818;stroke-width:1.0;"/><path d="M363.5781,146.8125 L363.9688,147.7969 L363.5781,147.7969 C363.125,147.7969 363.0156,147.8125 362.8594,147.9219 C362.6094,148.0781 362.4531,148.3594 362.4531,148.6563 C362.4531,148.9219 362.5938,149.1719 362.8125,149.3281 C362.9531,149.4531 363.1563,149.5 363.5781,149.5 L365.9375,149.5 C366.2969,149.5 366.5156,149.4688 366.6563,149.375 C366.9063,149.2344 367.0625,148.9375 367.0625,148.6563 C367.0625,148.375 366.9219,148.125 366.7031,147.9688 C366.5313,147.8281 366.375,147.7969 365.9063,147.7969 L362.5156,139.5938 L358.8438,139.5938 C358.3906,139.5938 358.2656,139.6094 358.1094,139.7031 C357.8594,139.875 357.7031,140.1563 357.7031,140.4375 C357.7031,140.7188 357.8438,140.9688 358.0625,141.1406 C358.2344,141.25 358.4063,141.2813 358.8438,141.2813 L359.9219,141.2813 L357.2813,147.7969 C356.8594,147.7969 356.7031,147.8125 356.5469,147.9219 C356.2969,148.0781 356.1406,148.3594 356.1406,148.6563 C356.1406,149.2188 356.5156,149.5 357.2656,149.5 L359.5313,149.5 C359.8906,149.5 360.1094,149.4688 360.2344,149.375 C360.5,149.2344 360.6406,148.9375 360.6406,148.6563 C360.6406,148.375 360.5156,148.125 360.2969,147.9531 C360.125,147.8281 359.9844,147.7969 359.5313,147.7969 L359.1406,147.7969 L359.5313,146.8125 L363.5781,146.8125 Z M362.875,145.1094 L360.2031,145.1094 L361.5469,141.8438 L362.875,145.1094 Z " fill="#000000"/><text fill="#000000" font-family="sans-serif" font-size="14" font-style="italic" lengthAdjust="spacing" textLength="43" x="375.5" y="149.8467">Model</text></g><!--class Classifier--><g id="elem_Classifier"><rect codeLine="18" fill="#F1F1F1" height="32" id="Classifier" rx="2.5" ry="2.5" style="stroke:#181818;stroke-width:0.5;" width="97" x="480.5" y="240"/><ellipse cx="495.5" cy="256" fill="#A9DCDF" rx="11" ry="11" style="stroke:#181818;stroke-width:1.0;"/><path d="M497.5781,257.8125 L497.9688,258.7969 L497.5781,258.7969 C497.125,258.7969 497.0156,258.8125 496.8594,258.9219 C496.6094,259.0781 496.4531,259.3594 496.4531,259.6563 C496.4531,259.9219 496.5938,260.1719 496.8125,260.3281 C496.9531,260.4531 497.1563,260.5 497.5781,260.5 L499.9375,260.5 C500.2969,260.5 500.5156,260.4688 500.6563,260.375 C500.9063,260.2344 501.0625,259.9375 501.0625,259.6563 C501.0625,259.375 500.9219,259.125 500.7031,258.9688 C500.5313,258.8281 500.375,258.7969 499.9063,258.7969 L496.5156,250.5938 L492.8438,250.5938 C492.3906,250.5938 492.2656,250.6094 492.1094,250.7031 C491.8594,250.875 491.7031,251.1563 491.7031,251.4375 C491.7031,251.7188 491.8438,251.9688 492.0625,252.1406 C492.2344,252.25 492.4063,252.2813 492.8438,252.2813 L493.9219,252.2813 L491.2813,258.7969 C490.8594,258.7969 490.7031,258.8125 490.5469,258.9219 C490.2969,259.0781 490.1406,259.3594 490.1406,259.6563 C490.1406,260.2188 490.5156,260.5 491.2656,260.5 L493.5313,260.5 C493.8906,260.5 494.1094,260.4688 494.2344,260.375 C494.5,260.2344 494.6406,259.9375 494.6406,259.6563 C494.6406,259.375 494.5156,259.125 494.2969,258.9531 C494.125,258.8281 493.9844,258.7969 493.5313,258.7969 L493.1406,258.7969 L493.5313,257.8125 L497.5781,257.8125 Z M496.875,256.1094 L494.2031,256.1094 L495.5469,252.8438 L496.875,256.1094 Z " fill="#000000"/><text fill="#000000" font-family="sans-serif" font-size="14" font-style="italic" lengthAdjust="spacing" textLength="65" x="509.5" y="260.8467">Classifier</text></g><!--class Regressor--><g id="elem_Regressor"><rect codeLine="19" fill="#F1F1F1" height="32" id="Regressor" rx="2.5" ry="2.5" style="stroke:#181818;stroke-width:0.5;" width="104" x="183" y="240"/><ellipse cx="198" cy="256" fill="#A9DCDF" rx="11" ry="11" style="stroke:#181818;stroke-width:1.0;"/><path d="M200.0781,257.8125 L200.4688,258.7969 L200.0781,258.7969 C199.625,258.7969 199.5156,258.8125 199.3594,258.9219 C199.1094,259.0781 198.9531,259.3594 198.9531,259.6563 C198.9531,259.9219 199.0938,260.1719 199.3125,260.3281 C199.4531,260.4531 199.6563,260.5 200.0781,260.5 L202.4375,260.5 C202.7969,260.5 203.0156,260.4688 203.1563,260.375 C203.4063,260.2344 203.5625,259.9375 203.5625,259.6563 C203.5625,259.375 203.4219,259.125 203.2031,258.9688 C203.0313,258.8281 202.875,258.7969 202.4063,258.7969 L199.0156,250.5938 L195.3438,250.5938 C194.8906,250.5938 194.7656,250.6094 194.6094,250.7031 C194.3594,250.875 194.2031,251.1563 194.2031,251.4375 C194.2031,251.7188 194.3438,251.9688 194.5625,252.1406 C194.7344,252.25 194.9063,252.2813 195.3438,252.2813 L196.4219,252.2813 L193.7813,258.7969 C193.3594,258.7969 193.2031,258.8125 193.0469,258.9219 C192.7969,259.0781 192.6406,259.3594 192.6406,259.6563 C192.6406,260.2188 193.0156,260.5 193.7656,260.5 L196.0313,260.5 C196.3906,260.5 196.6094,260.4688 196.7344,260.375 C197,260.2344 197.1406,259.9375 197.1406,259.6563 C197.1406,259.375 197.0156,259.125 196.7969,258.9531 C196.625,258.8281 196.4844,258.7969 196.0313,258.7969 L195.6406,258.7969 L196.0313,257.8125 L200.0781,257.8125 Z M199.375,256.1094 L196.7031,256.1094 L198.0469,252.8438 L199.375,256.1094 Z " fill="#000000"/><text fill="#000000" font-family="sans-serif" font-size="14" font-style="italic" lengthAdjust="spacing" textLength="72" x="212" y="260.8467">Regressor</text></g><!--class BasePipeline--><g id="elem_BasePipeline"><rect codeLine="20" fill="#F1F1F1" height="32" id="BasePipeline" rx="2.5" ry="2.5" style="stroke:#181818;stroke-width:0.5;" width="123" x="322.5" y="240"/><ellipse cx="337.5" cy="256" fill="#A9DCDF" rx="11" ry="11" style="stroke:#181818;stroke-width:1.0;"/><path d="M339.5781,257.8125 L339.9688,258.7969 L339.5781,258.7969 C339.125,258.7969 339.0156,258.8125 338.8594,258.9219 C338.6094,259.0781 338.4531,259.3594 338.4531,259.6563 C338.4531,259.9219 338.5938,260.1719 338.8125,260.3281 C338.9531,260.4531 339.1563,260.5 339.5781,260.5 L341.9375,260.5 C342.2969,260.5 342.5156,260.4688 342.6563,260.375 C342.9063,260.2344 343.0625,259.9375 343.0625,259.6563 C343.0625,259.375 342.9219,259.125 342.7031,258.9688 C342.5313,258.8281 342.375,258.7969 341.9063,258.7969 L338.5156,250.5938 L334.8438,250.5938 C334.3906,250.5938 334.2656,250.6094 334.1094,250.7031 C333.8594,250.875 333.7031,251.1563 333.7031,251.4375 C333.7031,251.7188 333.8438,251.9688 334.0625,252.1406 C334.2344,252.25 334.4063,252.2813 334.8438,252.2813 L335.9219,252.2813 L333.2813,258.7969 C332.8594,258.7969 332.7031,258.8125 332.5469,258.9219 C332.2969,259.0781 332.1406,259.3594 332.1406,259.6563 C332.1406,260.2188 332.5156,260.5 333.2656,260.5 L335.5313,260.5 C335.8906,260.5 336.1094,260.4688 336.2344,260.375 C336.5,260.2344 336.6406,259.9375 336.6406,259.6563 C336.6406,259.375 336.5156,259.125 336.2969,258.9531 C336.125,258.8281 335.9844,258.7969 335.5313,258.7969 L335.1406,258.7969 L335.5313,257.8125 L339.5781,257.8125 Z M338.875,256.1094 L336.2031,256.1094 L337.5469,252.8438 L338.875,256.1094 Z " fill="#000000"/><text fill="#000000" font-family="sans-serif" font-size="14" font-style="italic" lengthAdjust="spacing" textLength="91" x="351.5" y="260.8467">BasePipeline</text></g><!--class create_pipeline--><g id="elem_create_pipeline"><rect codeLine="21" fill="#F1F1F1" height="32" id="create_pipeline" rx="2.5" ry="2.5" style="stroke:#181818;stroke-width:0.5;" width="145" x="268.5" y="469"/><ellipse cx="283.5" cy="485" fill="#F1F1F1" rx="11" ry="11" style="stroke:#181818;stroke-width:1.0;"/><path d="M283.0469,486.5938 L284.7188,486.5938 C286.2969,486.5938 287.1406,486.3125 287.8906,485.4844 C288.4375,484.8906 288.75,484.0781 288.75,483.2969 C288.75,481.4219 287.2188,480.0938 285.0469,480.0938 L281.0938,480.0938 C280.6563,480.0938 280.5313,480.1094 280.375,480.2031 C280.125,480.3594 279.9688,480.6563 279.9688,480.9375 C279.9688,481.1875 280.1094,481.4688 280.3281,481.6406 C280.4844,481.75 280.6719,481.7813 281.0938,481.7813 L281.3438,481.7813 L281.3438,488.2969 L281.0938,488.2969 C280.6875,488.2969 280.5313,488.3125 280.375,488.4219 C280.125,488.5781 279.9688,488.8594 279.9688,489.1563 C279.9688,489.4063 280.1094,489.6719 280.3281,489.8281 C280.4688,489.9531 280.7031,490 281.0938,490 L284.7344,490 C285.0781,490 285.3281,489.9531 285.4375,489.875 C285.7031,489.7344 285.8594,489.4375 285.8594,489.1563 C285.8594,488.875 285.7188,488.625 285.5,488.4531 C285.3281,488.3281 285.1875,488.2969 284.7344,488.2969 L283.0469,488.2969 L283.0469,486.5938 Z M283.0469,481.7813 L285.0469,481.7813 C286.2344,481.7813 286.9375,482.3906 286.9375,483.3594 C286.9375,484.3125 286.2344,484.9063 285.0469,484.9063 L283.0469,484.9063 L283.0469,481.7813 Z " fill="#000000"/><text fill="#000000" font-family="sans-serif" font-size="14" lengthAdjust="spacing" textLength="113" x="297.5" y="489.8467">create_pipeline</text></g><!--class ClassifierPipeline--><g id="elem_ClassifierPipeline"><rect codeLine="22" fill="#F1F1F1" height="32" id="ClassifierPipeline" rx="2.5" ry="2.5" style="stroke:#181818;stroke-width:0.5;" width="155" x="360.5" y="375"/><ellipse cx="375.5" cy="391" fill="#ADD1B2" rx="11" ry="11" style="stroke:#181818;stroke-width:1.0;"/><path d="M377.8438,386.6719 C376.9063,386.2344 376.3125,386.0938 375.4375,386.0938 C372.8125,386.0938 370.8125,388.1719 370.8125,390.8906 L370.8125,392.0156 C370.8125,394.5938 372.9219,396.4844 375.8125,396.4844 C377.0313,396.4844 378.1875,396.1875 378.9375,395.6406 C379.5156,395.2344 379.8438,394.7813 379.8438,394.3906 C379.8438,393.9375 379.4531,393.5469 378.9844,393.5469 C378.7656,393.5469 378.5625,393.625 378.375,393.8125 C377.9219,394.2969 377.9219,394.2969 377.7344,394.3906 C377.3125,394.6563 376.625,394.7813 375.8594,394.7813 C373.8125,394.7813 372.5156,393.6875 372.5156,391.9844 L372.5156,390.8906 C372.5156,389.1094 373.7656,387.7969 375.5,387.7969 C376.0781,387.7969 376.6875,387.9531 377.1563,388.2031 C377.6406,388.4844 377.8125,388.7031 377.9063,389.1094 C377.9688,389.5156 378,389.6406 378.1406,389.7656 C378.2813,389.9063 378.5156,390.0156 378.7344,390.0156 C379,390.0156 379.2656,389.875 379.4375,389.6563 C379.5469,389.5 379.5781,389.3125 379.5781,388.8906 L379.5781,387.4688 C379.5781,387.0313 379.5625,386.9063 379.4688,386.75 C379.3125,386.4844 379.0313,386.3438 378.7344,386.3438 C378.4375,386.3438 378.2344,386.4375 378.0156,386.75 L377.8438,386.6719 Z " fill="#000000"/><text fill="#000000" font-family="sans-serif" font-size="14" lengthAdjust="spacing" textLength="123" x="389.5" y="395.8467">ClassifierPipeline</text></g><!--class RegressorPipeline--><g id="elem_RegressorPipeline"><rect codeLine="23" fill="#F1F1F1" height="32" id="RegressorPipeline" rx="2.5" ry="2.5" style="stroke:#181818;stroke-width:0.5;" width="162" x="163" y="375"/><ellipse cx="178" cy="391" fill="#ADD1B2" rx="11" ry="11" style="stroke:#181818;stroke-width:1.0;"/><path d="M180.3438,386.6719 C179.4063,386.2344 178.8125,386.0938 177.9375,386.0938 C175.3125,386.0938 173.3125,388.1719 173.3125,390.8906 L173.3125,392.0156 C173.3125,394.5938 175.4219,396.4844 178.3125,396.4844 C179.5313,396.4844 180.6875,396.1875 181.4375,395.6406 C182.0156,395.2344 182.3438,394.7813 182.3438,394.3906 C182.3438,393.9375 181.9531,393.5469 181.4844,393.5469 C181.2656,393.5469 181.0625,393.625 180.875,393.8125 C180.4219,394.2969 180.4219,394.2969 180.2344,394.3906 C179.8125,394.6563 179.125,394.7813 178.3594,394.7813 C176.3125,394.7813 175.0156,393.6875 175.0156,391.9844 L175.0156,390.8906 C175.0156,389.1094 176.2656,387.7969 178,387.7969 C178.5781,387.7969 179.1875,387.9531 179.6563,388.2031 C180.1406,388.4844 180.3125,388.7031 180.4063,389.1094 C180.4688,389.5156 180.5,389.6406 180.6406,389.7656 C180.7813,389.9063 181.0156,390.0156 181.2344,390.0156 C181.5,390.0156 181.7656,389.875 181.9375,389.6563 C182.0469,389.5 182.0781,389.3125 182.0781,388.8906 L182.0781,387.4688 C182.0781,387.0313 182.0625,386.9063 181.9688,386.75 C181.8125,386.4844 181.5313,386.3438 181.2344,386.3438 C180.9375,386.3438 180.7344,386.4375 180.5156,386.75 L180.3438,386.6719 Z " fill="#000000"/><text fill="#000000" font-family="sans-serif" font-size="14" lengthAdjust="spacing" textLength="130" x="192" y="395.8467">RegressorPipeline</text></g><!--class AutoML--><g id="elem_AutoML"><rect codeLine="31" fill="#F1F1F1" height="32" id="AutoML" rx="2.5" ry="2.5" style="stroke:#181818;stroke-width:0.5;" width="85" x="70.5" y="129"/><ellipse cx="85.5" cy="145" fill="#A9DCDF" rx="11" ry="11" style="stroke:#181818;stroke-width:1.0;"/><path d="M87.5781,146.8125 L87.9688,147.7969 L87.5781,147.7969 C87.125,147.7969 87.0156,147.8125 86.8594,147.9219 C86.6094,148.0781 86.4531,148.3594 86.4531,148.6563 C86.4531,148.9219 86.5938,149.1719 86.8125,149.3281 C86.9531,149.4531 87.1563,149.5 87.5781,149.5 L89.9375,149.5 C90.2969,149.5 90.5156,149.4688 90.6563,149.375 C90.9063,149.2344 91.0625,148.9375 91.0625,148.6563 C91.0625,148.375 90.9219,148.125 90.7031,147.9688 C90.5313,147.8281 90.375,147.7969 89.9063,147.7969 L86.5156,139.5938 L82.8438,139.5938 C82.3906,139.5938 82.2656,139.6094 82.1094,139.7031 C81.8594,139.875 81.7031,140.1563 81.7031,140.4375 C81.7031,140.7188 81.8438,140.9688 82.0625,141.1406 C82.2344,141.25 82.4063,141.2813 82.8438,141.2813 L83.9219,141.2813 L81.2813,147.7969 C80.8594,147.7969 80.7031,147.8125 80.5469,147.9219 C80.2969,148.0781 80.1406,148.3594 80.1406,148.6563 C80.1406,149.2188 80.5156,149.5 81.2656,149.5 L83.5313,149.5 C83.8906,149.5 84.1094,149.4688 84.2344,149.375 C84.5,149.2344 84.6406,148.9375 84.6406,148.6563 C84.6406,148.375 84.5156,148.125 84.2969,147.9531 C84.125,147.8281 83.9844,147.7969 83.5313,147.7969 L83.1406,147.7969 L83.5313,146.8125 L87.5781,146.8125 Z M86.875,145.1094 L84.2031,145.1094 L85.5469,141.8438 L86.875,145.1094 Z " fill="#000000"/><text fill="#000000" font-family="sans-serif" font-size="14" font-style="italic" lengthAdjust="spacing" textLength="53" x="99.5" y="149.8467">AutoML</text></g><!--entity   --><g id="elem_  "><ellipse cx="578" cy="391" fill="#F1F1F1" rx="8" ry="8" style="stroke:#181818;stroke-width:0.5;"/></g><!--entity    --><g id="elem_   "><ellipse cx="101" cy="391" fill="#F1F1F1" rx="8" ry="8" style="stroke:#181818;stroke-width:0.5;"/></g><!--entity     --><g id="elem_    "><ellipse cx="113" cy="256" fill="#F1F1F1" rx="8" ry="8" style="stroke:#181818;stroke-width:0.5;"/></g><!--reverse link AutoML to     --><g id="link_AutoML_    "><path codeLine="38" d="M113,179.156 C113,202.555 113,228.671 113,246.852 " fill="none" id="AutoML-backto-    " style="stroke:#181818;stroke-width:1.0;"/><polygon fill="none" points="113,161.156,107,179.156,119,179.156,113,161.156" style="stroke:#181818;stroke-width:1.0;"/></g><!--reverse link Data to  --><g id="link_Data_ "><path codeLine="39" d="M725.4357,178.9155 C729.2997,202.3145 733.652,228.671 736.654,246.852 " fill="none" id="Data-backto- " style="stroke:#181818;stroke-width:1.0;"/><polygon fill="none" points="722.503,161.156,719.5159,179.8931,731.3555,177.9379,722.503,161.156" style="stroke:#181818;stroke-width:1.0;"/></g><!--reverse link Model to Classifier--><g id="link_Model_Classifier"><path codeLine="40" d="M426.6712,170.2535 C442.2992,179.3925 446.511,182.556 463,195 C481.541,208.993 501.013,227.187 513.96,239.855 " fill="none" id="Model-backto-Classifier" style="stroke:#181818;stroke-width:1.0;"/><polygon fill="none" points="411.133,161.167,423.6424,175.4329,429.7,165.0741,411.133,161.167" style="stroke:#181818;stroke-width:1.0;"/></g><!--reverse link Model to Regressor--><g id="link_Model_Regressor"><path codeLine="41" d="M341.8617,170.2772 C326.2237,179.5002 321.8,182.702 305,195 C285.627,209.182 264.924,227.344 251.101,239.953 " fill="none" id="Model-backto-Regressor" style="stroke:#181818;stroke-width:1.0;"/><polygon fill="none" points="357.366,161.133,338.8136,165.1091,344.9097,175.4453,357.366,161.133" style="stroke:#181818;stroke-width:1.0;"/></g><!--reverse link Model to BasePipeline--><g id="link_Model_BasePipeline"><path codeLine="42" d="M384,179.156 C384,199.981 384,219.216 384,239.973 " fill="none" id="Model-backto-BasePipeline" style="stroke:#181818;stroke-width:1.0;"/><polygon fill="none" points="384,161.156,378,179.156,390,179.156,384,161.156" style="stroke:#181818;stroke-width:1.0;"/></g><!--reverse link Classifier to   --><g id="link_Classifier_  "><path codeLine="43" d="M540.8436,289.1472 C551.2506,317.3952 566.967,360.054 574.984,381.815 " fill="none" id="Classifier-backto-  " style="stroke:#181818;stroke-width:1.0;"/><polygon fill="none" points="534.621,272.257,535.2135,291.2214,546.4737,287.073,534.621,272.257" style="stroke:#181818;stroke-width:1.0;"/></g><!--reverse link Classifier to ClassifierPipeline--><g id="link_Classifier_ClassifierPipeline"><path codeLine="44" d="M508.3969,287.1126 C490.8439,312.7676 465.789,349.386 448.317,374.921 " fill="none" id="Classifier-backto-ClassifierPipeline" style="stroke:#181818;stroke-width:1.0;"/><polygon fill="none" points="518.561,272.257,503.445,283.7246,513.3487,290.5007,518.561,272.257" style="stroke:#181818;stroke-width:1.0;"/></g><!--reverse link Regressor to RegressorPipeline--><g id="link_Regressor_RegressorPipeline"><path codeLine="45" d="M237.2472,290.2159 C238.9832,315.8709 241.252,349.386 242.98,374.921 " fill="none" id="Regressor-backto-RegressorPipeline" style="stroke:#181818;stroke-width:1.0;"/><polygon fill="none" points="236.032,272.257,231.2609,290.621,243.2335,289.8109,236.032,272.257" style="stroke:#181818;stroke-width:1.0;"/></g><!--reverse link Regressor to    --><g id="link_Regressor_   "><path codeLine="46" d="M207.2808,284.5583 C192.2708,299.0903 180.713,308.334 156,322 C146.16,327.441 140.543,322.69 132,330 C115.609,344.027 106.765,368.886 103.087,381.76 " fill="none" id="Regressor-backto-   " style="stroke:#181818;stroke-width:1.0;"/><polygon fill="none" points="220.213,272.038,203.1074,280.2476,211.4543,288.8691,220.213,272.038" style="stroke:#181818;stroke-width:1.0;"/></g><!--reverse link ClassifierPipeline to create_pipeline--><g id="link_ClassifierPipeline_create_pipeline"><path codeLine="47" d="M417.6287,411.321 C399.6567,428.367 375.024,451.73 357.041,468.7855 " fill="none" id="ClassifierPipeline-backto-create_pipeline" style="stroke:#181818;stroke-width:1.0;"/><polygon fill="#181818" points="421.982,407.192,412.6994,410.4833,418.3542,410.6328,418.2047,416.2877,421.982,407.192" style="stroke:#181818;stroke-width:1.0;"/></g><!--reverse link RegressorPipeline to create_pipeline--><g id="link_RegressorPipeline_create_pipeline"><path codeLine="48" d="M264.3713,411.321 C282.3433,428.367 306.976,451.73 324.959,468.7855 " fill="none" id="RegressorPipeline-backto-create_pipeline" style="stroke:#181818;stroke-width:1.0;"/><polygon fill="#181818" points="260.018,407.192,263.7953,416.2877,263.6458,410.6328,269.3006,410.4833,260.018,407.192" style="stroke:#181818;stroke-width:1.0;"/></g><!--reverse link BasePipeline to ClassifierPipeline--><g id="link_BasePipeline_ClassifierPipeline"><path codeLine="49" d="M396.9658,288.9346 C407.3828,314.5896 421.51,349.386 431.878,374.921 " fill="none" id="BasePipeline-backto-ClassifierPipeline" style="stroke:#181818;stroke-width:1.0;"/><polygon fill="none" points="390.194,272.257,391.4066,291.1919,402.525,286.6773,390.194,272.257" style="stroke:#181818;stroke-width:1.0;"/></g><!--reverse link BasePipeline to RegressorPipeline--><g id="link_BasePipeline_RegressorPipeline"><path codeLine="50" d="M354.8901,284.6546 C327.8851,310.3096 286.752,349.386 259.872,374.921 " fill="none" id="BasePipeline-backto-RegressorPipeline" style="stroke:#181818;stroke-width:1.0;"/><polygon fill="none" points="367.94,272.257,350.7576,280.3046,359.0226,289.0045,367.94,272.257" style="stroke:#181818;stroke-width:1.0;"/></g><!--SRC=[dLFBReCm4BpdArRSW_e1kQJjfL8ZHUq7H8lPKYisjjREeO_yUw4aa6A3KVV0mJFiZDUpxYXhYumQX4BdjjwpB4wUdeIfN-KdmTqABlKkImBIrd-09bqGkrMFMHH7h0WoX_gWLGPV0nR1yn8zjYGO5HRECmhVkO77XXPmOhroosJP279ErbMiSrj2ib3DZv05y7cP35CbJR9zMoc9y_o0j2b9kGKZshN45EcX_SetIPnYlb35pH1DadYFZlRIaf8rXRDZuuqm2WGJUZhOAUBOtdwUsBkRLexECHUzGlhn_XEEYmnV_Is8I4mcDVJjoPlTyr8tsB2xNKobDHtMYCVE36o-r-jnbtPlhy1m-XlLxZWIo1iq3E4D60tUqA_taqs2Ct7hbKT6KiI_3neAmAOXJIr3e3BBlhr_yZuXEH3x0G00]--></g></svg>